<mxfile host="app.diagrams.net" modified="2023-09-12T11:01:24.041Z" agent="Mozilla/5.0 (Windows NT 10.0; Win64; x64) AppleWebKit/537.36 (KHTML, like Gecko) Chrome/114.0.0.0 YaBrowser/23.7.5.704 Yowser/2.5 Safari/537.36" etag="VvzhxJ65KcombF-015rA" version="21.7.4" type="device">
  <diagram name="Страница — 1" id="VlObmKkYU1htEmcqtFjB">
    <mxGraphModel dx="1323" dy="-1681" grid="1" gridSize="10" guides="1" tooltips="1" connect="1" arrows="1" fold="1" page="1" pageScale="1" pageWidth="1169" pageHeight="827" math="0" shadow="0">
      <root>
        <mxCell id="0" />
        <mxCell id="1" parent="0" />
        <mxCell id="YLEVBwhidmgwvVXyxrOQ-135" value="`grades`" style="swimlane;fontStyle=0;childLayout=stackLayout;horizontal=1;startSize=26;fillColor=default;horizontalStack=0;resizeParent=1;resizeLast=0;collapsible=1;marginBottom=0;swimlaneFillColor=default;align=center;" parent="1" vertex="1">
          <mxGeometry x="815" y="3094" width="180" height="130" as="geometry" />
        </mxCell>
        <mxCell id="YLEVBwhidmgwvVXyxrOQ-136" value="`grade_id`" style="shape=partialRectangle;top=0;left=0;right=0;bottom=0;align=left;verticalAlign=top;spacingTop=-2;fillColor=none;spacingLeft=64;spacingRight=4;overflow=hidden;rotatable=0;points=[[0,0.5],[1,0.5]];portConstraint=eastwest;dropTarget=0;" parent="YLEVBwhidmgwvVXyxrOQ-135" vertex="1">
          <mxGeometry y="26" width="180" height="26" as="geometry" />
        </mxCell>
        <mxCell id="YLEVBwhidmgwvVXyxrOQ-137" value="PK" style="shape=partialRectangle;top=0;left=0;bottom=0;fillColor=none;align=left;verticalAlign=middle;spacingLeft=4;spacingRight=4;overflow=hidden;rotatable=180;points=[];portConstraint=eastwest;part=1;" parent="YLEVBwhidmgwvVXyxrOQ-136" vertex="1" connectable="0">
          <mxGeometry width="54" height="26" as="geometry" />
        </mxCell>
        <mxCell id="YLEVBwhidmgwvVXyxrOQ-140" value="`webinar_id`" style="shape=partialRectangle;top=0;left=0;right=0;bottom=0;align=left;verticalAlign=top;spacingTop=-2;fillColor=none;spacingLeft=64;spacingRight=4;overflow=hidden;rotatable=0;points=[[0,0.5],[1,0.5]];portConstraint=eastwest;dropTarget=0;" parent="YLEVBwhidmgwvVXyxrOQ-135" vertex="1">
          <mxGeometry y="52" width="180" height="26" as="geometry" />
        </mxCell>
        <mxCell id="YLEVBwhidmgwvVXyxrOQ-141" value="FK" style="shape=partialRectangle;top=0;left=0;bottom=0;fillColor=none;align=left;verticalAlign=middle;spacingLeft=4;spacingRight=4;overflow=hidden;rotatable=180;points=[];portConstraint=eastwest;part=1;" parent="YLEVBwhidmgwvVXyxrOQ-140" vertex="1" connectable="0">
          <mxGeometry width="54" height="26" as="geometry" />
        </mxCell>
        <mxCell id="YLEVBwhidmgwvVXyxrOQ-138" value="`student_id`" style="shape=partialRectangle;top=0;left=0;right=0;bottom=0;align=left;verticalAlign=top;spacingTop=-2;fillColor=none;spacingLeft=64;spacingRight=4;overflow=hidden;rotatable=0;points=[[0,0.5],[1,0.5]];portConstraint=eastwest;dropTarget=0;" parent="YLEVBwhidmgwvVXyxrOQ-135" vertex="1">
          <mxGeometry y="78" width="180" height="26" as="geometry" />
        </mxCell>
        <mxCell id="YLEVBwhidmgwvVXyxrOQ-139" value="FK" style="shape=partialRectangle;top=0;left=0;bottom=0;fillColor=none;align=left;verticalAlign=middle;spacingLeft=4;spacingRight=4;overflow=hidden;rotatable=180;points=[];portConstraint=eastwest;part=1;" parent="YLEVBwhidmgwvVXyxrOQ-138" vertex="1" connectable="0">
          <mxGeometry width="54" height="26" as="geometry" />
        </mxCell>
        <mxCell id="YLEVBwhidmgwvVXyxrOQ-142" value="`grade_value`" style="shape=partialRectangle;top=0;left=0;right=0;bottom=0;align=left;verticalAlign=top;spacingTop=-2;fillColor=none;spacingLeft=64;spacingRight=4;overflow=hidden;rotatable=0;points=[[0,0.5],[1,0.5]];portConstraint=eastwest;dropTarget=0;" parent="YLEVBwhidmgwvVXyxrOQ-135" vertex="1">
          <mxGeometry y="104" width="180" height="26" as="geometry" />
        </mxCell>
        <mxCell id="YLEVBwhidmgwvVXyxrOQ-143" value="" style="shape=partialRectangle;top=0;left=0;bottom=0;fillColor=none;align=left;verticalAlign=middle;spacingLeft=4;spacingRight=4;overflow=hidden;rotatable=180;points=[];portConstraint=eastwest;part=1;" parent="YLEVBwhidmgwvVXyxrOQ-142" vertex="1" connectable="0">
          <mxGeometry width="54" height="26" as="geometry" />
        </mxCell>
        <mxCell id="YLEVBwhidmgwvVXyxrOQ-154" value="`homework`" style="swimlane;fontStyle=0;childLayout=stackLayout;horizontal=1;startSize=26;fillColor=default;horizontalStack=0;resizeParent=1;resizeLast=0;collapsible=1;marginBottom=0;swimlaneFillColor=default;align=center;" parent="1" vertex="1">
          <mxGeometry x="500" y="3082" width="200" height="182" as="geometry" />
        </mxCell>
        <mxCell id="YLEVBwhidmgwvVXyxrOQ-155" value="`homework_id`" style="shape=partialRectangle;top=0;left=0;right=0;bottom=0;align=left;verticalAlign=top;spacingTop=-2;fillColor=none;spacingLeft=64;spacingRight=4;overflow=hidden;rotatable=0;points=[[0,0.5],[1,0.5]];portConstraint=eastwest;dropTarget=0;" parent="YLEVBwhidmgwvVXyxrOQ-154" vertex="1">
          <mxGeometry y="26" width="200" height="26" as="geometry" />
        </mxCell>
        <mxCell id="YLEVBwhidmgwvVXyxrOQ-156" value="PK" style="shape=partialRectangle;top=0;left=0;bottom=0;fillColor=none;align=left;verticalAlign=middle;spacingLeft=4;spacingRight=4;overflow=hidden;rotatable=180;points=[];portConstraint=eastwest;part=1;" parent="YLEVBwhidmgwvVXyxrOQ-155" vertex="1" connectable="0">
          <mxGeometry width="54" height="26" as="geometry" />
        </mxCell>
        <mxCell id="YLEVBwhidmgwvVXyxrOQ-157" value="`subject_id`" style="shape=partialRectangle;top=0;left=0;right=0;bottom=0;align=left;verticalAlign=top;spacingTop=-2;fillColor=none;spacingLeft=64;spacingRight=4;overflow=hidden;rotatable=0;points=[[0,0.5],[1,0.5]];portConstraint=eastwest;dropTarget=0;" parent="YLEVBwhidmgwvVXyxrOQ-154" vertex="1">
          <mxGeometry y="52" width="200" height="26" as="geometry" />
        </mxCell>
        <mxCell id="YLEVBwhidmgwvVXyxrOQ-158" value="FK" style="shape=partialRectangle;top=0;left=0;bottom=0;fillColor=none;align=left;verticalAlign=middle;spacingLeft=4;spacingRight=4;overflow=hidden;rotatable=180;points=[];portConstraint=eastwest;part=1;" parent="YLEVBwhidmgwvVXyxrOQ-157" vertex="1" connectable="0">
          <mxGeometry width="54" height="26" as="geometry" />
        </mxCell>
        <mxCell id="YLEVBwhidmgwvVXyxrOQ-159" value="`homework_name`" style="shape=partialRectangle;top=0;left=0;right=0;bottom=0;align=left;verticalAlign=top;spacingTop=-2;fillColor=none;spacingLeft=64;spacingRight=4;overflow=hidden;rotatable=0;points=[[0,0.5],[1,0.5]];portConstraint=eastwest;dropTarget=0;" parent="YLEVBwhidmgwvVXyxrOQ-154" vertex="1">
          <mxGeometry y="78" width="200" height="26" as="geometry" />
        </mxCell>
        <mxCell id="YLEVBwhidmgwvVXyxrOQ-160" value="" style="shape=partialRectangle;top=0;left=0;bottom=0;fillColor=none;align=left;verticalAlign=middle;spacingLeft=4;spacingRight=4;overflow=hidden;rotatable=180;points=[];portConstraint=eastwest;part=1;" parent="YLEVBwhidmgwvVXyxrOQ-159" vertex="1" connectable="0">
          <mxGeometry width="54" height="26" as="geometry" />
        </mxCell>
        <mxCell id="YLEVBwhidmgwvVXyxrOQ-161" value="`date`" style="shape=partialRectangle;top=0;left=0;right=0;bottom=0;align=left;verticalAlign=top;spacingTop=-2;fillColor=none;spacingLeft=64;spacingRight=4;overflow=hidden;rotatable=0;points=[[0,0.5],[1,0.5]];portConstraint=eastwest;dropTarget=0;" parent="YLEVBwhidmgwvVXyxrOQ-154" vertex="1">
          <mxGeometry y="104" width="200" height="26" as="geometry" />
        </mxCell>
        <mxCell id="YLEVBwhidmgwvVXyxrOQ-162" value="" style="shape=partialRectangle;top=0;left=0;bottom=0;fillColor=none;align=left;verticalAlign=middle;spacingLeft=4;spacingRight=4;overflow=hidden;rotatable=180;points=[];portConstraint=eastwest;part=1;" parent="YLEVBwhidmgwvVXyxrOQ-161" vertex="1" connectable="0">
          <mxGeometry width="54" height="26" as="geometry" />
        </mxCell>
        <mxCell id="YLEVBwhidmgwvVXyxrOQ-163" value="`max_points`" style="shape=partialRectangle;top=0;left=0;right=0;bottom=0;align=left;verticalAlign=top;spacingTop=-2;fillColor=none;spacingLeft=64;spacingRight=4;overflow=hidden;rotatable=0;points=[[0,0.5],[1,0.5]];portConstraint=eastwest;dropTarget=0;" parent="YLEVBwhidmgwvVXyxrOQ-154" vertex="1">
          <mxGeometry y="130" width="200" height="26" as="geometry" />
        </mxCell>
        <mxCell id="YLEVBwhidmgwvVXyxrOQ-164" value="" style="shape=partialRectangle;top=0;left=0;bottom=0;fillColor=none;align=left;verticalAlign=middle;spacingLeft=4;spacingRight=4;overflow=hidden;rotatable=180;points=[];portConstraint=eastwest;part=1;" parent="YLEVBwhidmgwvVXyxrOQ-163" vertex="1" connectable="0">
          <mxGeometry width="54" height="26" as="geometry" />
        </mxCell>
        <mxCell id="YLEVBwhidmgwvVXyxrOQ-165" value="`deadline`" style="shape=partialRectangle;top=0;left=0;right=0;bottom=0;align=left;verticalAlign=top;spacingTop=-2;fillColor=none;spacingLeft=64;spacingRight=4;overflow=hidden;rotatable=0;points=[[0,0.5],[1,0.5]];portConstraint=eastwest;dropTarget=0;" parent="YLEVBwhidmgwvVXyxrOQ-154" vertex="1">
          <mxGeometry y="156" width="200" height="26" as="geometry" />
        </mxCell>
        <mxCell id="YLEVBwhidmgwvVXyxrOQ-166" value="" style="shape=partialRectangle;top=0;left=0;bottom=0;fillColor=none;align=left;verticalAlign=middle;spacingLeft=4;spacingRight=4;overflow=hidden;rotatable=180;points=[];portConstraint=eastwest;part=1;" parent="YLEVBwhidmgwvVXyxrOQ-165" vertex="1" connectable="0">
          <mxGeometry width="54" height="26" as="geometry" />
        </mxCell>
        <mxCell id="YLEVBwhidmgwvVXyxrOQ-175" value="`homeworkresults`" style="swimlane;fontStyle=0;childLayout=stackLayout;horizontal=1;startSize=26;fillColor=default;horizontalStack=0;resizeParent=1;resizeLast=0;collapsible=1;marginBottom=0;swimlaneFillColor=default;align=center;" parent="1" vertex="1">
          <mxGeometry x="280" y="3059" width="180" height="130" as="geometry" />
        </mxCell>
        <mxCell id="YLEVBwhidmgwvVXyxrOQ-176" value="`result_id`" style="shape=partialRectangle;top=0;left=0;right=0;bottom=0;align=left;verticalAlign=top;spacingTop=-2;fillColor=none;spacingLeft=64;spacingRight=4;overflow=hidden;rotatable=0;points=[[0,0.5],[1,0.5]];portConstraint=eastwest;dropTarget=0;" parent="YLEVBwhidmgwvVXyxrOQ-175" vertex="1">
          <mxGeometry y="26" width="180" height="26" as="geometry" />
        </mxCell>
        <mxCell id="YLEVBwhidmgwvVXyxrOQ-177" value="PK" style="shape=partialRectangle;top=0;left=0;bottom=0;fillColor=none;align=left;verticalAlign=middle;spacingLeft=4;spacingRight=4;overflow=hidden;rotatable=180;points=[];portConstraint=eastwest;part=1;" parent="YLEVBwhidmgwvVXyxrOQ-176" vertex="1" connectable="0">
          <mxGeometry width="54" height="26" as="geometry" />
        </mxCell>
        <mxCell id="YLEVBwhidmgwvVXyxrOQ-178" value="`student_id`" style="shape=partialRectangle;top=0;left=0;right=0;bottom=0;align=left;verticalAlign=top;spacingTop=-2;fillColor=none;spacingLeft=64;spacingRight=4;overflow=hidden;rotatable=0;points=[[0,0.5],[1,0.5]];portConstraint=eastwest;dropTarget=0;" parent="YLEVBwhidmgwvVXyxrOQ-175" vertex="1">
          <mxGeometry y="52" width="180" height="26" as="geometry" />
        </mxCell>
        <mxCell id="YLEVBwhidmgwvVXyxrOQ-179" value="FK" style="shape=partialRectangle;top=0;left=0;bottom=0;fillColor=none;align=left;verticalAlign=middle;spacingLeft=4;spacingRight=4;overflow=hidden;rotatable=180;points=[];portConstraint=eastwest;part=1;" parent="YLEVBwhidmgwvVXyxrOQ-178" vertex="1" connectable="0">
          <mxGeometry width="54" height="26" as="geometry" />
        </mxCell>
        <mxCell id="YLEVBwhidmgwvVXyxrOQ-180" value="`homework_id`" style="shape=partialRectangle;top=0;left=0;right=0;bottom=0;align=left;verticalAlign=top;spacingTop=-2;fillColor=none;spacingLeft=64;spacingRight=4;overflow=hidden;rotatable=0;points=[[0,0.5],[1,0.5]];portConstraint=eastwest;dropTarget=0;" parent="YLEVBwhidmgwvVXyxrOQ-175" vertex="1">
          <mxGeometry y="78" width="180" height="26" as="geometry" />
        </mxCell>
        <mxCell id="YLEVBwhidmgwvVXyxrOQ-181" value="FK" style="shape=partialRectangle;top=0;left=0;bottom=0;fillColor=none;align=left;verticalAlign=middle;spacingLeft=4;spacingRight=4;overflow=hidden;rotatable=180;points=[];portConstraint=eastwest;part=1;" parent="YLEVBwhidmgwvVXyxrOQ-180" vertex="1" connectable="0">
          <mxGeometry width="54" height="26" as="geometry" />
        </mxCell>
        <mxCell id="YLEVBwhidmgwvVXyxrOQ-182" value="`score`" style="shape=partialRectangle;top=0;left=0;right=0;bottom=0;align=left;verticalAlign=top;spacingTop=-2;fillColor=none;spacingLeft=64;spacingRight=4;overflow=hidden;rotatable=0;points=[[0,0.5],[1,0.5]];portConstraint=eastwest;dropTarget=0;" parent="YLEVBwhidmgwvVXyxrOQ-175" vertex="1">
          <mxGeometry y="104" width="180" height="26" as="geometry" />
        </mxCell>
        <mxCell id="YLEVBwhidmgwvVXyxrOQ-183" value="" style="shape=partialRectangle;top=0;left=0;bottom=0;fillColor=none;align=left;verticalAlign=middle;spacingLeft=4;spacingRight=4;overflow=hidden;rotatable=180;points=[];portConstraint=eastwest;part=1;" parent="YLEVBwhidmgwvVXyxrOQ-182" vertex="1" connectable="0">
          <mxGeometry width="54" height="26" as="geometry" />
        </mxCell>
        <mxCell id="YLEVBwhidmgwvVXyxrOQ-194" value="`lessons`" style="swimlane;fontStyle=0;childLayout=stackLayout;horizontal=1;startSize=26;fillColor=default;horizontalStack=0;resizeParent=1;resizeLast=0;collapsible=1;marginBottom=0;swimlaneFillColor=default;align=center;" parent="1" vertex="1">
          <mxGeometry x="280" y="2862" width="180" height="182" as="geometry" />
        </mxCell>
        <mxCell id="YLEVBwhidmgwvVXyxrOQ-195" value="`lesson_id`" style="shape=partialRectangle;top=0;left=0;right=0;bottom=0;align=left;verticalAlign=top;spacingTop=-2;fillColor=none;spacingLeft=64;spacingRight=4;overflow=hidden;rotatable=0;points=[[0,0.5],[1,0.5]];portConstraint=eastwest;dropTarget=0;" parent="YLEVBwhidmgwvVXyxrOQ-194" vertex="1">
          <mxGeometry y="26" width="180" height="26" as="geometry" />
        </mxCell>
        <mxCell id="YLEVBwhidmgwvVXyxrOQ-196" value="PK" style="shape=partialRectangle;top=0;left=0;bottom=0;fillColor=none;align=left;verticalAlign=middle;spacingLeft=4;spacingRight=4;overflow=hidden;rotatable=180;points=[];portConstraint=eastwest;part=1;" parent="YLEVBwhidmgwvVXyxrOQ-195" vertex="1" connectable="0">
          <mxGeometry width="54" height="26" as="geometry" />
        </mxCell>
        <mxCell id="YLEVBwhidmgwvVXyxrOQ-197" value="`teacher_id`" style="shape=partialRectangle;top=0;left=0;right=0;bottom=0;align=left;verticalAlign=top;spacingTop=-2;fillColor=none;spacingLeft=64;spacingRight=4;overflow=hidden;rotatable=0;points=[[0,0.5],[1,0.5]];portConstraint=eastwest;dropTarget=0;" parent="YLEVBwhidmgwvVXyxrOQ-194" vertex="1">
          <mxGeometry y="52" width="180" height="26" as="geometry" />
        </mxCell>
        <mxCell id="YLEVBwhidmgwvVXyxrOQ-198" value="FK" style="shape=partialRectangle;top=0;left=0;bottom=0;fillColor=none;align=left;verticalAlign=middle;spacingLeft=4;spacingRight=4;overflow=hidden;rotatable=180;points=[];portConstraint=eastwest;part=1;" parent="YLEVBwhidmgwvVXyxrOQ-197" vertex="1" connectable="0">
          <mxGeometry width="54" height="26" as="geometry" />
        </mxCell>
        <mxCell id="YLEVBwhidmgwvVXyxrOQ-199" value="`student_id`" style="shape=partialRectangle;top=0;left=0;right=0;bottom=0;align=left;verticalAlign=top;spacingTop=-2;fillColor=none;spacingLeft=64;spacingRight=4;overflow=hidden;rotatable=0;points=[[0,0.5],[1,0.5]];portConstraint=eastwest;dropTarget=0;" parent="YLEVBwhidmgwvVXyxrOQ-194" vertex="1">
          <mxGeometry y="78" width="180" height="26" as="geometry" />
        </mxCell>
        <mxCell id="YLEVBwhidmgwvVXyxrOQ-200" value="FK" style="shape=partialRectangle;top=0;left=0;bottom=0;fillColor=none;align=left;verticalAlign=middle;spacingLeft=4;spacingRight=4;overflow=hidden;rotatable=180;points=[];portConstraint=eastwest;part=1;" parent="YLEVBwhidmgwvVXyxrOQ-199" vertex="1" connectable="0">
          <mxGeometry width="54" height="26" as="geometry" />
        </mxCell>
        <mxCell id="YLEVBwhidmgwvVXyxrOQ-201" value="`subject_id`" style="shape=partialRectangle;top=0;left=0;right=0;bottom=0;align=left;verticalAlign=top;spacingTop=-2;fillColor=none;spacingLeft=64;spacingRight=4;overflow=hidden;rotatable=0;points=[[0,0.5],[1,0.5]];portConstraint=eastwest;dropTarget=0;" parent="YLEVBwhidmgwvVXyxrOQ-194" vertex="1">
          <mxGeometry y="104" width="180" height="26" as="geometry" />
        </mxCell>
        <mxCell id="YLEVBwhidmgwvVXyxrOQ-202" value="" style="shape=partialRectangle;top=0;left=0;bottom=0;fillColor=none;align=left;verticalAlign=middle;spacingLeft=4;spacingRight=4;overflow=hidden;rotatable=180;points=[];portConstraint=eastwest;part=1;" parent="YLEVBwhidmgwvVXyxrOQ-201" vertex="1" connectable="0">
          <mxGeometry width="54" height="26" as="geometry" />
        </mxCell>
        <mxCell id="YLEVBwhidmgwvVXyxrOQ-203" value="`day_of_week`" style="shape=partialRectangle;top=0;left=0;right=0;bottom=0;align=left;verticalAlign=top;spacingTop=-2;fillColor=none;spacingLeft=64;spacingRight=4;overflow=hidden;rotatable=0;points=[[0,0.5],[1,0.5]];portConstraint=eastwest;dropTarget=0;" parent="YLEVBwhidmgwvVXyxrOQ-194" vertex="1">
          <mxGeometry y="130" width="180" height="26" as="geometry" />
        </mxCell>
        <mxCell id="YLEVBwhidmgwvVXyxrOQ-204" value="" style="shape=partialRectangle;top=0;left=0;bottom=0;fillColor=none;align=left;verticalAlign=middle;spacingLeft=4;spacingRight=4;overflow=hidden;rotatable=180;points=[];portConstraint=eastwest;part=1;" parent="YLEVBwhidmgwvVXyxrOQ-203" vertex="1" connectable="0">
          <mxGeometry width="54" height="26" as="geometry" />
        </mxCell>
        <mxCell id="YLEVBwhidmgwvVXyxrOQ-205" value="`lesson_time`" style="shape=partialRectangle;top=0;left=0;right=0;bottom=0;align=left;verticalAlign=top;spacingTop=-2;fillColor=none;spacingLeft=64;spacingRight=4;overflow=hidden;rotatable=0;points=[[0,0.5],[1,0.5]];portConstraint=eastwest;dropTarget=0;" parent="YLEVBwhidmgwvVXyxrOQ-194" vertex="1">
          <mxGeometry y="156" width="180" height="26" as="geometry" />
        </mxCell>
        <mxCell id="YLEVBwhidmgwvVXyxrOQ-206" value="" style="shape=partialRectangle;top=0;left=0;bottom=0;fillColor=none;align=left;verticalAlign=middle;spacingLeft=4;spacingRight=4;overflow=hidden;rotatable=180;points=[];portConstraint=eastwest;part=1;" parent="YLEVBwhidmgwvVXyxrOQ-205" vertex="1" connectable="0">
          <mxGeometry width="54" height="26" as="geometry" />
        </mxCell>
        <mxCell id="YLEVBwhidmgwvVXyxrOQ-222" value="`seniorteachers`" style="swimlane;fontStyle=0;childLayout=stackLayout;horizontal=1;startSize=26;fillColor=default;horizontalStack=0;resizeParent=1;resizeLast=0;collapsible=1;marginBottom=0;swimlaneFillColor=default;align=center;" parent="1" vertex="1">
          <mxGeometry x="540" y="2710" width="220" height="182" as="geometry" />
        </mxCell>
        <mxCell id="YLEVBwhidmgwvVXyxrOQ-223" value="`senior_teacher_id`" style="shape=partialRectangle;top=0;left=0;right=0;bottom=0;align=left;verticalAlign=top;spacingTop=-2;fillColor=none;spacingLeft=64;spacingRight=4;overflow=hidden;rotatable=0;points=[[0,0.5],[1,0.5]];portConstraint=eastwest;dropTarget=0;" parent="YLEVBwhidmgwvVXyxrOQ-222" vertex="1">
          <mxGeometry y="26" width="220" height="26" as="geometry" />
        </mxCell>
        <mxCell id="YLEVBwhidmgwvVXyxrOQ-224" value="PK" style="shape=partialRectangle;top=0;left=0;bottom=0;fillColor=none;align=left;verticalAlign=middle;spacingLeft=4;spacingRight=4;overflow=hidden;rotatable=180;points=[];portConstraint=eastwest;part=1;" parent="YLEVBwhidmgwvVXyxrOQ-223" vertex="1" connectable="0">
          <mxGeometry width="54" height="26" as="geometry" />
        </mxCell>
        <mxCell id="YLEVBwhidmgwvVXyxrOQ-225" value="`senior_teacher_name`" style="shape=partialRectangle;top=0;left=0;right=0;bottom=0;align=left;verticalAlign=top;spacingTop=-2;fillColor=none;spacingLeft=64;spacingRight=4;overflow=hidden;rotatable=0;points=[[0,0.5],[1,0.5]];portConstraint=eastwest;dropTarget=0;" parent="YLEVBwhidmgwvVXyxrOQ-222" vertex="1">
          <mxGeometry y="52" width="220" height="26" as="geometry" />
        </mxCell>
        <mxCell id="YLEVBwhidmgwvVXyxrOQ-226" value="" style="shape=partialRectangle;top=0;left=0;bottom=0;fillColor=none;align=left;verticalAlign=middle;spacingLeft=4;spacingRight=4;overflow=hidden;rotatable=180;points=[];portConstraint=eastwest;part=1;" parent="YLEVBwhidmgwvVXyxrOQ-225" vertex="1" connectable="0">
          <mxGeometry width="54" height="26" as="geometry" />
        </mxCell>
        <mxCell id="YLEVBwhidmgwvVXyxrOQ-227" value="`email`" style="shape=partialRectangle;top=0;left=0;right=0;bottom=0;align=left;verticalAlign=top;spacingTop=-2;fillColor=none;spacingLeft=64;spacingRight=4;overflow=hidden;rotatable=0;points=[[0,0.5],[1,0.5]];portConstraint=eastwest;dropTarget=0;" parent="YLEVBwhidmgwvVXyxrOQ-222" vertex="1">
          <mxGeometry y="78" width="220" height="26" as="geometry" />
        </mxCell>
        <mxCell id="YLEVBwhidmgwvVXyxrOQ-228" value="" style="shape=partialRectangle;top=0;left=0;bottom=0;fillColor=none;align=left;verticalAlign=middle;spacingLeft=4;spacingRight=4;overflow=hidden;rotatable=180;points=[];portConstraint=eastwest;part=1;" parent="YLEVBwhidmgwvVXyxrOQ-227" vertex="1" connectable="0">
          <mxGeometry width="54" height="26" as="geometry" />
        </mxCell>
        <mxCell id="YLEVBwhidmgwvVXyxrOQ-229" value="`phone`" style="shape=partialRectangle;top=0;left=0;right=0;bottom=0;align=left;verticalAlign=top;spacingTop=-2;fillColor=none;spacingLeft=64;spacingRight=4;overflow=hidden;rotatable=0;points=[[0,0.5],[1,0.5]];portConstraint=eastwest;dropTarget=0;" parent="YLEVBwhidmgwvVXyxrOQ-222" vertex="1">
          <mxGeometry y="104" width="220" height="26" as="geometry" />
        </mxCell>
        <mxCell id="YLEVBwhidmgwvVXyxrOQ-230" value="" style="shape=partialRectangle;top=0;left=0;bottom=0;fillColor=none;align=left;verticalAlign=middle;spacingLeft=4;spacingRight=4;overflow=hidden;rotatable=180;points=[];portConstraint=eastwest;part=1;" parent="YLEVBwhidmgwvVXyxrOQ-229" vertex="1" connectable="0">
          <mxGeometry width="54" height="26" as="geometry" />
        </mxCell>
        <mxCell id="YLEVBwhidmgwvVXyxrOQ-231" value="`subject_id`" style="shape=partialRectangle;top=0;left=0;right=0;bottom=0;align=left;verticalAlign=top;spacingTop=-2;fillColor=none;spacingLeft=64;spacingRight=4;overflow=hidden;rotatable=0;points=[[0,0.5],[1,0.5]];portConstraint=eastwest;dropTarget=0;" parent="YLEVBwhidmgwvVXyxrOQ-222" vertex="1">
          <mxGeometry y="130" width="220" height="26" as="geometry" />
        </mxCell>
        <mxCell id="YLEVBwhidmgwvVXyxrOQ-232" value="" style="shape=partialRectangle;top=0;left=0;bottom=0;fillColor=none;align=left;verticalAlign=middle;spacingLeft=4;spacingRight=4;overflow=hidden;rotatable=180;points=[];portConstraint=eastwest;part=1;" parent="YLEVBwhidmgwvVXyxrOQ-231" vertex="1" connectable="0">
          <mxGeometry width="54" height="26" as="geometry" />
        </mxCell>
        <mxCell id="YLEVBwhidmgwvVXyxrOQ-233" value="`salary`" style="shape=partialRectangle;top=0;left=0;right=0;bottom=0;align=left;verticalAlign=top;spacingTop=-2;fillColor=none;spacingLeft=64;spacingRight=4;overflow=hidden;rotatable=0;points=[[0,0.5],[1,0.5]];portConstraint=eastwest;dropTarget=0;" parent="YLEVBwhidmgwvVXyxrOQ-222" vertex="1">
          <mxGeometry y="156" width="220" height="26" as="geometry" />
        </mxCell>
        <mxCell id="YLEVBwhidmgwvVXyxrOQ-234" value="" style="shape=partialRectangle;top=0;left=0;bottom=0;fillColor=none;align=left;verticalAlign=middle;spacingLeft=4;spacingRight=4;overflow=hidden;rotatable=180;points=[];portConstraint=eastwest;part=1;" parent="YLEVBwhidmgwvVXyxrOQ-233" vertex="1" connectable="0">
          <mxGeometry width="54" height="26" as="geometry" />
        </mxCell>
        <mxCell id="YLEVBwhidmgwvVXyxrOQ-241" value="`students`" style="swimlane;fontStyle=0;childLayout=stackLayout;horizontal=1;startSize=26;fillColor=default;horizontalStack=0;resizeParent=1;resizeLast=0;collapsible=1;marginBottom=0;swimlaneFillColor=default;align=center;" parent="1" vertex="1">
          <mxGeometry x="40" y="2942" width="180" height="182" as="geometry" />
        </mxCell>
        <mxCell id="YLEVBwhidmgwvVXyxrOQ-242" value="`student_id`" style="shape=partialRectangle;top=0;left=0;right=0;bottom=0;align=left;verticalAlign=top;spacingTop=-2;fillColor=none;spacingLeft=64;spacingRight=4;overflow=hidden;rotatable=0;points=[[0,0.5],[1,0.5]];portConstraint=eastwest;dropTarget=0;" parent="YLEVBwhidmgwvVXyxrOQ-241" vertex="1">
          <mxGeometry y="26" width="180" height="26" as="geometry" />
        </mxCell>
        <mxCell id="YLEVBwhidmgwvVXyxrOQ-243" value="PK" style="shape=partialRectangle;top=0;left=0;bottom=0;fillColor=none;align=left;verticalAlign=middle;spacingLeft=4;spacingRight=4;overflow=hidden;rotatable=180;points=[];portConstraint=eastwest;part=1;" parent="YLEVBwhidmgwvVXyxrOQ-242" vertex="1" connectable="0">
          <mxGeometry width="54" height="26" as="geometry" />
        </mxCell>
        <mxCell id="YLEVBwhidmgwvVXyxrOQ-252" value="`teacher_id`" style="shape=partialRectangle;top=0;left=0;right=0;bottom=0;align=left;verticalAlign=top;spacingTop=-2;fillColor=none;spacingLeft=64;spacingRight=4;overflow=hidden;rotatable=0;points=[[0,0.5],[1,0.5]];portConstraint=eastwest;dropTarget=0;" parent="YLEVBwhidmgwvVXyxrOQ-241" vertex="1">
          <mxGeometry y="52" width="180" height="26" as="geometry" />
        </mxCell>
        <mxCell id="YLEVBwhidmgwvVXyxrOQ-253" value="FK" style="shape=partialRectangle;top=0;left=0;bottom=0;fillColor=none;align=left;verticalAlign=middle;spacingLeft=4;spacingRight=4;overflow=hidden;rotatable=180;points=[];portConstraint=eastwest;part=1;" parent="YLEVBwhidmgwvVXyxrOQ-252" vertex="1" connectable="0">
          <mxGeometry width="54" height="26" as="geometry" />
        </mxCell>
        <mxCell id="YLEVBwhidmgwvVXyxrOQ-244" value="`student_name`" style="shape=partialRectangle;top=0;left=0;right=0;bottom=0;align=left;verticalAlign=top;spacingTop=-2;fillColor=none;spacingLeft=64;spacingRight=4;overflow=hidden;rotatable=0;points=[[0,0.5],[1,0.5]];portConstraint=eastwest;dropTarget=0;" parent="YLEVBwhidmgwvVXyxrOQ-241" vertex="1">
          <mxGeometry y="78" width="180" height="26" as="geometry" />
        </mxCell>
        <mxCell id="YLEVBwhidmgwvVXyxrOQ-245" value="" style="shape=partialRectangle;top=0;left=0;bottom=0;fillColor=none;align=left;verticalAlign=middle;spacingLeft=4;spacingRight=4;overflow=hidden;rotatable=180;points=[];portConstraint=eastwest;part=1;" parent="YLEVBwhidmgwvVXyxrOQ-244" vertex="1" connectable="0">
          <mxGeometry width="54" height="26" as="geometry" />
        </mxCell>
        <mxCell id="YLEVBwhidmgwvVXyxrOQ-246" value="`birthdate`" style="shape=partialRectangle;top=0;left=0;right=0;bottom=0;align=left;verticalAlign=top;spacingTop=-2;fillColor=none;spacingLeft=64;spacingRight=4;overflow=hidden;rotatable=0;points=[[0,0.5],[1,0.5]];portConstraint=eastwest;dropTarget=0;" parent="YLEVBwhidmgwvVXyxrOQ-241" vertex="1">
          <mxGeometry y="104" width="180" height="26" as="geometry" />
        </mxCell>
        <mxCell id="YLEVBwhidmgwvVXyxrOQ-247" value="" style="shape=partialRectangle;top=0;left=0;bottom=0;fillColor=none;align=left;verticalAlign=middle;spacingLeft=4;spacingRight=4;overflow=hidden;rotatable=180;points=[];portConstraint=eastwest;part=1;" parent="YLEVBwhidmgwvVXyxrOQ-246" vertex="1" connectable="0">
          <mxGeometry width="54" height="26" as="geometry" />
        </mxCell>
        <mxCell id="YLEVBwhidmgwvVXyxrOQ-248" value="`email`" style="shape=partialRectangle;top=0;left=0;right=0;bottom=0;align=left;verticalAlign=top;spacingTop=-2;fillColor=none;spacingLeft=64;spacingRight=4;overflow=hidden;rotatable=0;points=[[0,0.5],[1,0.5]];portConstraint=eastwest;dropTarget=0;" parent="YLEVBwhidmgwvVXyxrOQ-241" vertex="1">
          <mxGeometry y="130" width="180" height="26" as="geometry" />
        </mxCell>
        <mxCell id="YLEVBwhidmgwvVXyxrOQ-249" value="" style="shape=partialRectangle;top=0;left=0;bottom=0;fillColor=none;align=left;verticalAlign=middle;spacingLeft=4;spacingRight=4;overflow=hidden;rotatable=180;points=[];portConstraint=eastwest;part=1;" parent="YLEVBwhidmgwvVXyxrOQ-248" vertex="1" connectable="0">
          <mxGeometry width="54" height="26" as="geometry" />
        </mxCell>
        <mxCell id="YLEVBwhidmgwvVXyxrOQ-250" value="`phone`" style="shape=partialRectangle;top=0;left=0;right=0;bottom=0;align=left;verticalAlign=top;spacingTop=-2;fillColor=none;spacingLeft=64;spacingRight=4;overflow=hidden;rotatable=0;points=[[0,0.5],[1,0.5]];portConstraint=eastwest;dropTarget=0;" parent="YLEVBwhidmgwvVXyxrOQ-241" vertex="1">
          <mxGeometry y="156" width="180" height="26" as="geometry" />
        </mxCell>
        <mxCell id="YLEVBwhidmgwvVXyxrOQ-251" value="" style="shape=partialRectangle;top=0;left=0;bottom=0;fillColor=none;align=left;verticalAlign=middle;spacingLeft=4;spacingRight=4;overflow=hidden;rotatable=180;points=[];portConstraint=eastwest;part=1;" parent="YLEVBwhidmgwvVXyxrOQ-250" vertex="1" connectable="0">
          <mxGeometry width="54" height="26" as="geometry" />
        </mxCell>
        <mxCell id="YLEVBwhidmgwvVXyxrOQ-260" value="`subjects`" style="swimlane;fontStyle=0;childLayout=stackLayout;horizontal=1;startSize=26;fillColor=default;horizontalStack=0;resizeParent=1;resizeLast=0;collapsible=1;marginBottom=0;swimlaneFillColor=default;align=center;" parent="1" vertex="1">
          <mxGeometry x="500" y="2913" width="180" height="80" as="geometry" />
        </mxCell>
        <mxCell id="YLEVBwhidmgwvVXyxrOQ-261" value="`subject_id`" style="shape=partialRectangle;top=0;left=0;right=0;bottom=0;align=left;verticalAlign=top;spacingTop=-2;fillColor=none;spacingLeft=64;spacingRight=4;overflow=hidden;rotatable=0;points=[[0,0.5],[1,0.5]];portConstraint=eastwest;dropTarget=0;" parent="YLEVBwhidmgwvVXyxrOQ-260" vertex="1">
          <mxGeometry y="26" width="180" height="26" as="geometry" />
        </mxCell>
        <mxCell id="YLEVBwhidmgwvVXyxrOQ-262" value="PK" style="shape=partialRectangle;top=0;left=0;bottom=0;fillColor=none;align=left;verticalAlign=middle;spacingLeft=4;spacingRight=4;overflow=hidden;rotatable=180;points=[];portConstraint=eastwest;part=1;" parent="YLEVBwhidmgwvVXyxrOQ-261" vertex="1" connectable="0">
          <mxGeometry width="54" height="26" as="geometry" />
        </mxCell>
        <mxCell id="YLEVBwhidmgwvVXyxrOQ-263" value="`subject_name`" style="shape=partialRectangle;top=0;left=0;right=0;bottom=0;align=left;verticalAlign=top;spacingTop=-2;fillColor=none;spacingLeft=64;spacingRight=4;overflow=hidden;rotatable=0;points=[[0,0.5],[1,0.5]];portConstraint=eastwest;dropTarget=0;" parent="YLEVBwhidmgwvVXyxrOQ-260" vertex="1">
          <mxGeometry y="52" width="180" height="26" as="geometry" />
        </mxCell>
        <mxCell id="YLEVBwhidmgwvVXyxrOQ-264" value="" style="shape=partialRectangle;top=0;left=0;bottom=0;fillColor=none;align=left;verticalAlign=middle;spacingLeft=4;spacingRight=4;overflow=hidden;rotatable=180;points=[];portConstraint=eastwest;part=1;" parent="YLEVBwhidmgwvVXyxrOQ-263" vertex="1" connectable="0">
          <mxGeometry width="54" height="26" as="geometry" />
        </mxCell>
        <mxCell id="YLEVBwhidmgwvVXyxrOQ-271" value="`teacherrelationship`" style="swimlane;fontStyle=0;childLayout=stackLayout;horizontal=1;startSize=26;fillColor=default;horizontalStack=0;resizeParent=1;resizeLast=0;collapsible=1;marginBottom=0;swimlaneFillColor=default;align=center;" parent="1" vertex="1">
          <mxGeometry x="280" y="2710" width="200" height="110" as="geometry" />
        </mxCell>
        <mxCell id="YLEVBwhidmgwvVXyxrOQ-272" value="`relationship_id`" style="shape=partialRectangle;top=0;left=0;right=0;bottom=0;align=left;verticalAlign=top;spacingTop=-2;fillColor=none;spacingLeft=64;spacingRight=4;overflow=hidden;rotatable=0;points=[[0,0.5],[1,0.5]];portConstraint=eastwest;dropTarget=0;" parent="YLEVBwhidmgwvVXyxrOQ-271" vertex="1">
          <mxGeometry y="26" width="200" height="26" as="geometry" />
        </mxCell>
        <mxCell id="YLEVBwhidmgwvVXyxrOQ-273" value="PK" style="shape=partialRectangle;top=0;left=0;bottom=0;fillColor=none;align=left;verticalAlign=middle;spacingLeft=4;spacingRight=4;overflow=hidden;rotatable=180;points=[];portConstraint=eastwest;part=1;" parent="YLEVBwhidmgwvVXyxrOQ-272" vertex="1" connectable="0">
          <mxGeometry width="54" height="26" as="geometry" />
        </mxCell>
        <mxCell id="YLEVBwhidmgwvVXyxrOQ-274" value="`senior_teacher_id`" style="shape=partialRectangle;top=0;left=0;right=0;bottom=0;align=left;verticalAlign=top;spacingTop=-2;fillColor=none;spacingLeft=64;spacingRight=4;overflow=hidden;rotatable=0;points=[[0,0.5],[1,0.5]];portConstraint=eastwest;dropTarget=0;" parent="YLEVBwhidmgwvVXyxrOQ-271" vertex="1">
          <mxGeometry y="52" width="200" height="26" as="geometry" />
        </mxCell>
        <mxCell id="YLEVBwhidmgwvVXyxrOQ-275" value="FK" style="shape=partialRectangle;top=0;left=0;bottom=0;fillColor=none;align=left;verticalAlign=middle;spacingLeft=4;spacingRight=4;overflow=hidden;rotatable=180;points=[];portConstraint=eastwest;part=1;" parent="YLEVBwhidmgwvVXyxrOQ-274" vertex="1" connectable="0">
          <mxGeometry width="54" height="26" as="geometry" />
        </mxCell>
        <mxCell id="YLEVBwhidmgwvVXyxrOQ-276" value="`junior_teacher_id`" style="shape=partialRectangle;top=0;left=0;right=0;bottom=0;align=left;verticalAlign=top;spacingTop=-2;fillColor=none;spacingLeft=64;spacingRight=4;overflow=hidden;rotatable=0;points=[[0,0.5],[1,0.5]];portConstraint=eastwest;dropTarget=0;" parent="YLEVBwhidmgwvVXyxrOQ-271" vertex="1">
          <mxGeometry y="78" width="200" height="26" as="geometry" />
        </mxCell>
        <mxCell id="YLEVBwhidmgwvVXyxrOQ-277" value="FK" style="shape=partialRectangle;top=0;left=0;bottom=0;fillColor=none;align=left;verticalAlign=middle;spacingLeft=4;spacingRight=4;overflow=hidden;rotatable=180;points=[];portConstraint=eastwest;part=1;" parent="YLEVBwhidmgwvVXyxrOQ-276" vertex="1" connectable="0">
          <mxGeometry width="54" height="26" as="geometry" />
        </mxCell>
        <mxCell id="YLEVBwhidmgwvVXyxrOQ-288" value="`teachers`" style="swimlane;fontStyle=0;childLayout=stackLayout;horizontal=1;startSize=26;fillColor=default;horizontalStack=0;resizeParent=1;resizeLast=0;collapsible=1;marginBottom=0;swimlaneFillColor=default;align=center;" parent="1" vertex="1">
          <mxGeometry x="30" y="2710" width="180" height="182" as="geometry" />
        </mxCell>
        <mxCell id="YLEVBwhidmgwvVXyxrOQ-289" value="`teacher_id`" style="shape=partialRectangle;top=0;left=0;right=0;bottom=0;align=left;verticalAlign=top;spacingTop=-2;fillColor=none;spacingLeft=64;spacingRight=4;overflow=hidden;rotatable=0;points=[[0,0.5],[1,0.5]];portConstraint=eastwest;dropTarget=0;" parent="YLEVBwhidmgwvVXyxrOQ-288" vertex="1">
          <mxGeometry y="26" width="180" height="26" as="geometry" />
        </mxCell>
        <mxCell id="YLEVBwhidmgwvVXyxrOQ-290" value="PK" style="shape=partialRectangle;top=0;left=0;bottom=0;fillColor=none;align=left;verticalAlign=middle;spacingLeft=4;spacingRight=4;overflow=hidden;rotatable=180;points=[];portConstraint=eastwest;part=1;" parent="YLEVBwhidmgwvVXyxrOQ-289" vertex="1" connectable="0">
          <mxGeometry width="54" height="26" as="geometry" />
        </mxCell>
        <mxCell id="YLEVBwhidmgwvVXyxrOQ-291" value="`teacher_name`" style="shape=partialRectangle;top=0;left=0;right=0;bottom=0;align=left;verticalAlign=top;spacingTop=-2;fillColor=none;spacingLeft=64;spacingRight=4;overflow=hidden;rotatable=0;points=[[0,0.5],[1,0.5]];portConstraint=eastwest;dropTarget=0;" parent="YLEVBwhidmgwvVXyxrOQ-288" vertex="1">
          <mxGeometry y="52" width="180" height="26" as="geometry" />
        </mxCell>
        <mxCell id="YLEVBwhidmgwvVXyxrOQ-292" value="" style="shape=partialRectangle;top=0;left=0;bottom=0;fillColor=none;align=left;verticalAlign=middle;spacingLeft=4;spacingRight=4;overflow=hidden;rotatable=180;points=[];portConstraint=eastwest;part=1;" parent="YLEVBwhidmgwvVXyxrOQ-291" vertex="1" connectable="0">
          <mxGeometry width="54" height="26" as="geometry" />
        </mxCell>
        <mxCell id="YLEVBwhidmgwvVXyxrOQ-293" value="`email`" style="shape=partialRectangle;top=0;left=0;right=0;bottom=0;align=left;verticalAlign=top;spacingTop=-2;fillColor=none;spacingLeft=64;spacingRight=4;overflow=hidden;rotatable=0;points=[[0,0.5],[1,0.5]];portConstraint=eastwest;dropTarget=0;" parent="YLEVBwhidmgwvVXyxrOQ-288" vertex="1">
          <mxGeometry y="78" width="180" height="26" as="geometry" />
        </mxCell>
        <mxCell id="YLEVBwhidmgwvVXyxrOQ-294" value="" style="shape=partialRectangle;top=0;left=0;bottom=0;fillColor=none;align=left;verticalAlign=middle;spacingLeft=4;spacingRight=4;overflow=hidden;rotatable=180;points=[];portConstraint=eastwest;part=1;" parent="YLEVBwhidmgwvVXyxrOQ-293" vertex="1" connectable="0">
          <mxGeometry width="54" height="26" as="geometry" />
        </mxCell>
        <mxCell id="YLEVBwhidmgwvVXyxrOQ-295" value="`phone`" style="shape=partialRectangle;top=0;left=0;right=0;bottom=0;align=left;verticalAlign=top;spacingTop=-2;fillColor=none;spacingLeft=64;spacingRight=4;overflow=hidden;rotatable=0;points=[[0,0.5],[1,0.5]];portConstraint=eastwest;dropTarget=0;" parent="YLEVBwhidmgwvVXyxrOQ-288" vertex="1">
          <mxGeometry y="104" width="180" height="26" as="geometry" />
        </mxCell>
        <mxCell id="YLEVBwhidmgwvVXyxrOQ-296" value="" style="shape=partialRectangle;top=0;left=0;bottom=0;fillColor=none;align=left;verticalAlign=middle;spacingLeft=4;spacingRight=4;overflow=hidden;rotatable=180;points=[];portConstraint=eastwest;part=1;" parent="YLEVBwhidmgwvVXyxrOQ-295" vertex="1" connectable="0">
          <mxGeometry width="54" height="26" as="geometry" />
        </mxCell>
        <mxCell id="YLEVBwhidmgwvVXyxrOQ-297" value="`subject_id`" style="shape=partialRectangle;top=0;left=0;right=0;bottom=0;align=left;verticalAlign=top;spacingTop=-2;fillColor=none;spacingLeft=64;spacingRight=4;overflow=hidden;rotatable=0;points=[[0,0.5],[1,0.5]];portConstraint=eastwest;dropTarget=0;" parent="YLEVBwhidmgwvVXyxrOQ-288" vertex="1">
          <mxGeometry y="130" width="180" height="26" as="geometry" />
        </mxCell>
        <mxCell id="YLEVBwhidmgwvVXyxrOQ-298" value="" style="shape=partialRectangle;top=0;left=0;bottom=0;fillColor=none;align=left;verticalAlign=middle;spacingLeft=4;spacingRight=4;overflow=hidden;rotatable=180;points=[];portConstraint=eastwest;part=1;" parent="YLEVBwhidmgwvVXyxrOQ-297" vertex="1" connectable="0">
          <mxGeometry width="54" height="26" as="geometry" />
        </mxCell>
        <mxCell id="YLEVBwhidmgwvVXyxrOQ-299" value="`salary`" style="shape=partialRectangle;top=0;left=0;right=0;bottom=0;align=left;verticalAlign=top;spacingTop=-2;fillColor=none;spacingLeft=64;spacingRight=4;overflow=hidden;rotatable=0;points=[[0,0.5],[1,0.5]];portConstraint=eastwest;dropTarget=0;" parent="YLEVBwhidmgwvVXyxrOQ-288" vertex="1">
          <mxGeometry y="156" width="180" height="26" as="geometry" />
        </mxCell>
        <mxCell id="YLEVBwhidmgwvVXyxrOQ-300" value="" style="shape=partialRectangle;top=0;left=0;bottom=0;fillColor=none;align=left;verticalAlign=middle;spacingLeft=4;spacingRight=4;overflow=hidden;rotatable=180;points=[];portConstraint=eastwest;part=1;" parent="YLEVBwhidmgwvVXyxrOQ-299" vertex="1" connectable="0">
          <mxGeometry width="54" height="26" as="geometry" />
        </mxCell>
        <mxCell id="YLEVBwhidmgwvVXyxrOQ-307" value="`webinars`" style="swimlane;fontStyle=0;childLayout=stackLayout;horizontal=1;startSize=26;fillColor=default;horizontalStack=0;resizeParent=1;resizeLast=0;collapsible=1;marginBottom=0;swimlaneFillColor=default;align=center;" parent="1" vertex="1">
          <mxGeometry x="805" y="2852" width="200" height="160" as="geometry" />
        </mxCell>
        <mxCell id="YLEVBwhidmgwvVXyxrOQ-308" value="`webinar_id`" style="shape=partialRectangle;top=0;left=0;right=0;bottom=0;align=left;verticalAlign=top;spacingTop=-2;fillColor=none;spacingLeft=64;spacingRight=4;overflow=hidden;rotatable=0;points=[[0,0.5],[1,0.5]];portConstraint=eastwest;dropTarget=0;" parent="YLEVBwhidmgwvVXyxrOQ-307" vertex="1">
          <mxGeometry y="26" width="200" height="26" as="geometry" />
        </mxCell>
        <mxCell id="YLEVBwhidmgwvVXyxrOQ-309" value="PK" style="shape=partialRectangle;top=0;left=0;bottom=0;fillColor=none;align=left;verticalAlign=middle;spacingLeft=4;spacingRight=4;overflow=hidden;rotatable=180;points=[];portConstraint=eastwest;part=1;" parent="YLEVBwhidmgwvVXyxrOQ-308" vertex="1" connectable="0">
          <mxGeometry width="54" height="26" as="geometry" />
        </mxCell>
        <mxCell id="YLEVBwhidmgwvVXyxrOQ-316" value="`senior_teacher_id`" style="shape=partialRectangle;top=0;left=0;right=0;bottom=0;align=left;verticalAlign=top;spacingTop=-2;fillColor=none;spacingLeft=64;spacingRight=4;overflow=hidden;rotatable=0;points=[[0,0.5],[1,0.5]];portConstraint=eastwest;dropTarget=0;" parent="YLEVBwhidmgwvVXyxrOQ-307" vertex="1">
          <mxGeometry y="52" width="200" height="26" as="geometry" />
        </mxCell>
        <mxCell id="YLEVBwhidmgwvVXyxrOQ-317" value="FK" style="shape=partialRectangle;top=0;left=0;bottom=0;fillColor=none;align=left;verticalAlign=middle;spacingLeft=4;spacingRight=4;overflow=hidden;rotatable=180;points=[];portConstraint=eastwest;part=1;" parent="YLEVBwhidmgwvVXyxrOQ-316" vertex="1" connectable="0">
          <mxGeometry width="54" height="26" as="geometry" />
        </mxCell>
        <mxCell id="YLEVBwhidmgwvVXyxrOQ-310" value="`subject_id`" style="shape=partialRectangle;top=0;left=0;right=0;bottom=0;align=left;verticalAlign=top;spacingTop=-2;fillColor=none;spacingLeft=64;spacingRight=4;overflow=hidden;rotatable=0;points=[[0,0.5],[1,0.5]];portConstraint=eastwest;dropTarget=0;" parent="YLEVBwhidmgwvVXyxrOQ-307" vertex="1">
          <mxGeometry y="78" width="200" height="26" as="geometry" />
        </mxCell>
        <mxCell id="YLEVBwhidmgwvVXyxrOQ-311" value="FK" style="shape=partialRectangle;top=0;left=0;bottom=0;fillColor=none;align=left;verticalAlign=middle;spacingLeft=4;spacingRight=4;overflow=hidden;rotatable=180;points=[];portConstraint=eastwest;part=1;" parent="YLEVBwhidmgwvVXyxrOQ-310" vertex="1" connectable="0">
          <mxGeometry width="54" height="26" as="geometry" />
        </mxCell>
        <mxCell id="YLEVBwhidmgwvVXyxrOQ-312" value="`date`" style="shape=partialRectangle;top=0;left=0;right=0;bottom=0;align=left;verticalAlign=top;spacingTop=-2;fillColor=none;spacingLeft=64;spacingRight=4;overflow=hidden;rotatable=0;points=[[0,0.5],[1,0.5]];portConstraint=eastwest;dropTarget=0;" parent="YLEVBwhidmgwvVXyxrOQ-307" vertex="1">
          <mxGeometry y="104" width="200" height="26" as="geometry" />
        </mxCell>
        <mxCell id="YLEVBwhidmgwvVXyxrOQ-313" value="" style="shape=partialRectangle;top=0;left=0;bottom=0;fillColor=none;align=left;verticalAlign=middle;spacingLeft=4;spacingRight=4;overflow=hidden;rotatable=180;points=[];portConstraint=eastwest;part=1;" parent="YLEVBwhidmgwvVXyxrOQ-312" vertex="1" connectable="0">
          <mxGeometry width="54" height="26" as="geometry" />
        </mxCell>
        <mxCell id="YLEVBwhidmgwvVXyxrOQ-314" value="`topic`" style="shape=partialRectangle;top=0;left=0;right=0;bottom=0;align=left;verticalAlign=top;spacingTop=-2;fillColor=none;spacingLeft=64;spacingRight=4;overflow=hidden;rotatable=0;points=[[0,0.5],[1,0.5]];portConstraint=eastwest;dropTarget=0;" parent="YLEVBwhidmgwvVXyxrOQ-307" vertex="1">
          <mxGeometry y="130" width="200" height="26" as="geometry" />
        </mxCell>
        <mxCell id="YLEVBwhidmgwvVXyxrOQ-315" value="" style="shape=partialRectangle;top=0;left=0;bottom=0;fillColor=none;align=left;verticalAlign=middle;spacingLeft=4;spacingRight=4;overflow=hidden;rotatable=180;points=[];portConstraint=eastwest;part=1;" parent="YLEVBwhidmgwvVXyxrOQ-314" vertex="1" connectable="0">
          <mxGeometry width="54" height="26" as="geometry" />
        </mxCell>
        <mxCell id="YLEVBwhidmgwvVXyxrOQ-326" style="edgeStyle=orthogonalEdgeStyle;rounded=0;orthogonalLoop=1;jettySize=auto;html=1;entryX=1;entryY=0.5;entryDx=0;entryDy=0;endArrow=none;endFill=0;" parent="1" source="YLEVBwhidmgwvVXyxrOQ-223" target="YLEVBwhidmgwvVXyxrOQ-274" edge="1">
          <mxGeometry relative="1" as="geometry" />
        </mxCell>
        <mxCell id="YLEVBwhidmgwvVXyxrOQ-327" value="" style="edgeStyle=orthogonalEdgeStyle;rounded=0;orthogonalLoop=1;jettySize=auto;html=1;endArrow=none;endFill=0;" parent="1" source="YLEVBwhidmgwvVXyxrOQ-289" target="YLEVBwhidmgwvVXyxrOQ-274" edge="1">
          <mxGeometry x="-0.7826" y="-9" relative="1" as="geometry">
            <mxPoint as="offset" />
            <Array as="points">
              <mxPoint x="245" y="2742" />
              <mxPoint x="245" y="2775" />
            </Array>
          </mxGeometry>
        </mxCell>
        <mxCell id="YLEVBwhidmgwvVXyxrOQ-328" style="edgeStyle=orthogonalEdgeStyle;rounded=0;orthogonalLoop=1;jettySize=auto;html=1;endArrow=none;endFill=0;exitX=0;exitY=0.5;exitDx=0;exitDy=0;entryX=1;entryY=0.5;entryDx=0;entryDy=0;" parent="1" source="YLEVBwhidmgwvVXyxrOQ-252" target="YLEVBwhidmgwvVXyxrOQ-289" edge="1">
          <mxGeometry relative="1" as="geometry">
            <Array as="points">
              <mxPoint x="20" y="3007" />
              <mxPoint x="20" y="2922" />
              <mxPoint x="230" y="2922" />
              <mxPoint x="230" y="2762" />
              <mxPoint x="210" y="2762" />
            </Array>
          </mxGeometry>
        </mxCell>
        <mxCell id="YLEVBwhidmgwvVXyxrOQ-329" style="edgeStyle=orthogonalEdgeStyle;rounded=0;orthogonalLoop=1;jettySize=auto;html=1;endArrow=none;endFill=0;" parent="1" source="YLEVBwhidmgwvVXyxrOQ-242" target="YLEVBwhidmgwvVXyxrOQ-199" edge="1">
          <mxGeometry relative="1" as="geometry">
            <Array as="points">
              <mxPoint x="250" y="2972" />
              <mxPoint x="250" y="2953" />
            </Array>
          </mxGeometry>
        </mxCell>
        <mxCell id="YLEVBwhidmgwvVXyxrOQ-330" style="edgeStyle=orthogonalEdgeStyle;rounded=0;orthogonalLoop=1;jettySize=auto;html=1;endArrow=none;endFill=0;exitX=1;exitY=0.5;exitDx=0;exitDy=0;" parent="1" source="YLEVBwhidmgwvVXyxrOQ-289" target="YLEVBwhidmgwvVXyxrOQ-197" edge="1">
          <mxGeometry relative="1" as="geometry">
            <Array as="points">
              <mxPoint x="210" y="2752" />
              <mxPoint x="240" y="2752" />
              <mxPoint x="240" y="2927" />
            </Array>
          </mxGeometry>
        </mxCell>
        <mxCell id="YLEVBwhidmgwvVXyxrOQ-331" style="edgeStyle=orthogonalEdgeStyle;rounded=0;orthogonalLoop=1;jettySize=auto;html=1;endArrow=none;endFill=0;" parent="1" source="YLEVBwhidmgwvVXyxrOQ-201" target="YLEVBwhidmgwvVXyxrOQ-261" edge="1">
          <mxGeometry relative="1" as="geometry" />
        </mxCell>
        <mxCell id="YLEVBwhidmgwvVXyxrOQ-332" style="edgeStyle=orthogonalEdgeStyle;rounded=0;orthogonalLoop=1;jettySize=auto;html=1;endArrow=none;endFill=0;" parent="1" source="YLEVBwhidmgwvVXyxrOQ-310" target="YLEVBwhidmgwvVXyxrOQ-261" edge="1">
          <mxGeometry relative="1" as="geometry">
            <Array as="points">
              <mxPoint x="710" y="2942" />
              <mxPoint x="710" y="2942" />
            </Array>
          </mxGeometry>
        </mxCell>
        <mxCell id="YLEVBwhidmgwvVXyxrOQ-333" style="edgeStyle=orthogonalEdgeStyle;rounded=0;orthogonalLoop=1;jettySize=auto;html=1;endArrow=none;endFill=0;exitX=0;exitY=0.5;exitDx=0;exitDy=0;" parent="1" source="YLEVBwhidmgwvVXyxrOQ-316" target="YLEVBwhidmgwvVXyxrOQ-223" edge="1">
          <mxGeometry relative="1" as="geometry">
            <Array as="points">
              <mxPoint x="790" y="2917" />
              <mxPoint x="770" y="2917" />
              <mxPoint x="770" y="2749" />
            </Array>
          </mxGeometry>
        </mxCell>
        <mxCell id="YLEVBwhidmgwvVXyxrOQ-334" style="edgeStyle=orthogonalEdgeStyle;rounded=0;orthogonalLoop=1;jettySize=auto;html=1;exitX=1;exitY=0.5;exitDx=0;exitDy=0;endArrow=none;endFill=0;entryX=0;entryY=0.5;entryDx=0;entryDy=0;" parent="1" source="YLEVBwhidmgwvVXyxrOQ-261" target="YLEVBwhidmgwvVXyxrOQ-157" edge="1">
          <mxGeometry relative="1" as="geometry">
            <Array as="points">
              <mxPoint x="700" y="2952" />
              <mxPoint x="700" y="3050" />
              <mxPoint x="470" y="3050" />
              <mxPoint x="470" y="3147" />
            </Array>
          </mxGeometry>
        </mxCell>
        <mxCell id="YLEVBwhidmgwvVXyxrOQ-335" style="edgeStyle=orthogonalEdgeStyle;rounded=0;orthogonalLoop=1;jettySize=auto;html=1;exitX=1;exitY=0.5;exitDx=0;exitDy=0;endArrow=none;endFill=0;entryX=0;entryY=0.5;entryDx=0;entryDy=0;" parent="1" source="YLEVBwhidmgwvVXyxrOQ-155" target="YLEVBwhidmgwvVXyxrOQ-180" edge="1">
          <mxGeometry relative="1" as="geometry">
            <mxPoint x="240" y="3202" as="targetPoint" />
            <Array as="points">
              <mxPoint x="720" y="3121" />
              <mxPoint x="720" y="3281" />
              <mxPoint x="500" y="3281" />
              <mxPoint x="500" y="3282" />
              <mxPoint x="470" y="3282" />
              <mxPoint x="470" y="3212" />
              <mxPoint x="250" y="3212" />
              <mxPoint x="250" y="3150" />
            </Array>
          </mxGeometry>
        </mxCell>
        <mxCell id="YLEVBwhidmgwvVXyxrOQ-336" style="edgeStyle=orthogonalEdgeStyle;rounded=0;orthogonalLoop=1;jettySize=auto;html=1;exitX=1;exitY=0.5;exitDx=0;exitDy=0;endArrow=none;endFill=0;" parent="1" source="YLEVBwhidmgwvVXyxrOQ-242" target="YLEVBwhidmgwvVXyxrOQ-178" edge="1">
          <mxGeometry relative="1" as="geometry" />
        </mxCell>
        <mxCell id="YLEVBwhidmgwvVXyxrOQ-338" style="edgeStyle=orthogonalEdgeStyle;rounded=0;orthogonalLoop=1;jettySize=auto;html=1;exitX=1;exitY=0.5;exitDx=0;exitDy=0;endArrow=none;endFill=0;entryX=0;entryY=0.5;entryDx=0;entryDy=0;" parent="1" source="YLEVBwhidmgwvVXyxrOQ-242" target="YLEVBwhidmgwvVXyxrOQ-138" edge="1">
          <mxGeometry relative="1" as="geometry">
            <mxPoint x="100" y="3295" as="targetPoint" />
            <Array as="points">
              <mxPoint x="220" y="2992" />
              <mxPoint x="240" y="2992" />
              <mxPoint x="240" y="3295" />
              <mxPoint x="770" y="3295" />
              <mxPoint x="770" y="3185" />
            </Array>
          </mxGeometry>
        </mxCell>
        <mxCell id="YLEVBwhidmgwvVXyxrOQ-339" value="ꝏ" style="text;whiteSpace=wrap;fontSize=21;" parent="1" vertex="1">
          <mxGeometry x="785" y="3154" width="20" height="10" as="geometry" />
        </mxCell>
        <mxCell id="YLEVBwhidmgwvVXyxrOQ-341" value="1" style="text;html=1;align=center;verticalAlign=middle;resizable=0;points=[];autosize=1;strokeColor=none;fillColor=none;fontSize=21;" parent="1" vertex="1">
          <mxGeometry x="210" y="2993" width="40" height="40" as="geometry" />
        </mxCell>
        <mxCell id="YLEVBwhidmgwvVXyxrOQ-342" value="1" style="text;html=1;align=center;verticalAlign=middle;resizable=0;points=[];autosize=1;strokeColor=none;fillColor=none;fontSize=21;" parent="1" vertex="1">
          <mxGeometry x="510" y="2712" width="40" height="40" as="geometry" />
        </mxCell>
        <mxCell id="YLEVBwhidmgwvVXyxrOQ-343" value="1" style="text;html=1;align=center;verticalAlign=middle;resizable=0;points=[];autosize=1;strokeColor=none;fillColor=none;fontSize=21;" parent="1" vertex="1">
          <mxGeometry x="200" y="2762" width="40" height="40" as="geometry" />
        </mxCell>
        <mxCell id="YLEVBwhidmgwvVXyxrOQ-345" value="1" style="text;html=1;align=center;verticalAlign=middle;resizable=0;points=[];autosize=1;strokeColor=none;fillColor=none;fontSize=21;" parent="1" vertex="1">
          <mxGeometry x="230" y="2780" width="40" height="40" as="geometry" />
        </mxCell>
        <mxCell id="YLEVBwhidmgwvVXyxrOQ-346" value="ꝏ" style="text;whiteSpace=wrap;fontSize=21;" parent="1" vertex="1">
          <mxGeometry x="220" y="2712" width="20" height="10" as="geometry" />
        </mxCell>
        <mxCell id="YLEVBwhidmgwvVXyxrOQ-347" value="1" style="text;html=1;align=center;verticalAlign=middle;resizable=0;points=[];autosize=1;strokeColor=none;fillColor=none;fontSize=21;" parent="1" vertex="1">
          <mxGeometry x="250" y="2740" width="40" height="40" as="geometry" />
        </mxCell>
        <mxCell id="YLEVBwhidmgwvVXyxrOQ-348" value="ꝏ" style="text;whiteSpace=wrap;fontSize=21;" parent="1" vertex="1">
          <mxGeometry x="480" y="2742" width="20" height="10" as="geometry" />
        </mxCell>
        <mxCell id="YLEVBwhidmgwvVXyxrOQ-349" value="ꝏ" style="text;whiteSpace=wrap;fontSize=21;" parent="1" vertex="1">
          <mxGeometry x="250" y="2892" width="20" height="10" as="geometry" />
        </mxCell>
        <mxCell id="YLEVBwhidmgwvVXyxrOQ-350" value="ꝏ" style="text;whiteSpace=wrap;fontSize=21;" parent="1" vertex="1">
          <mxGeometry x="10" y="2997" width="20" height="10" as="geometry" />
        </mxCell>
        <mxCell id="YLEVBwhidmgwvVXyxrOQ-352" value="ꝏ" style="text;whiteSpace=wrap;fontSize=21;" parent="1" vertex="1">
          <mxGeometry x="250" y="3094" width="20" height="10" as="geometry" />
        </mxCell>
        <mxCell id="YLEVBwhidmgwvVXyxrOQ-353" value="1" style="text;html=1;align=center;verticalAlign=middle;resizable=0;points=[];autosize=1;strokeColor=none;fillColor=none;fontSize=21;" parent="1" vertex="1">
          <mxGeometry x="240" y="2972" width="40" height="40" as="geometry" />
        </mxCell>
        <mxCell id="YLEVBwhidmgwvVXyxrOQ-354" value="1" style="text;html=1;align=center;verticalAlign=middle;resizable=0;points=[];autosize=1;strokeColor=none;fillColor=none;fontSize=21;" parent="1" vertex="1">
          <mxGeometry x="210" y="2942" width="40" height="40" as="geometry" />
        </mxCell>
        <mxCell id="YLEVBwhidmgwvVXyxrOQ-355" value="ꝏ" style="text;whiteSpace=wrap;fontSize=21;" parent="1" vertex="1">
          <mxGeometry x="250" y="2922" width="20" height="10" as="geometry" />
        </mxCell>
        <mxCell id="YLEVBwhidmgwvVXyxrOQ-357" value="1" style="text;html=1;align=center;verticalAlign=middle;resizable=0;points=[];autosize=1;strokeColor=none;fillColor=none;fontSize=21;" parent="1" vertex="1">
          <mxGeometry x="470" y="2922" width="40" height="40" as="geometry" />
        </mxCell>
        <mxCell id="YLEVBwhidmgwvVXyxrOQ-358" value="ꝏ" style="text;whiteSpace=wrap;fontSize=21;" parent="1" vertex="1">
          <mxGeometry x="460" y="2972" width="20" height="10" as="geometry" />
        </mxCell>
        <mxCell id="YLEVBwhidmgwvVXyxrOQ-359" value="1" style="text;html=1;align=center;verticalAlign=middle;resizable=0;points=[];autosize=1;strokeColor=none;fillColor=none;fontSize=21;" parent="1" vertex="1">
          <mxGeometry x="750" y="2712" width="40" height="40" as="geometry" />
        </mxCell>
        <mxCell id="YLEVBwhidmgwvVXyxrOQ-360" value="ꝏ" style="text;whiteSpace=wrap;fontSize=21;" parent="1" vertex="1">
          <mxGeometry x="780" y="2882" width="20" height="10" as="geometry" />
        </mxCell>
        <mxCell id="YLEVBwhidmgwvVXyxrOQ-361" value="1" style="text;html=1;align=center;verticalAlign=middle;resizable=0;points=[];autosize=1;strokeColor=none;fillColor=none;fontSize=21;" parent="1" vertex="1">
          <mxGeometry x="690" y="2912" width="40" height="40" as="geometry" />
        </mxCell>
        <mxCell id="YLEVBwhidmgwvVXyxrOQ-363" value="1" style="text;html=1;align=center;verticalAlign=middle;resizable=0;points=[];autosize=1;strokeColor=none;fillColor=none;fontSize=21;" parent="1" vertex="1">
          <mxGeometry x="670" y="2957" width="40" height="40" as="geometry" />
        </mxCell>
        <mxCell id="YLEVBwhidmgwvVXyxrOQ-364" value="ꝏ" style="text;whiteSpace=wrap;fontSize=21;" parent="1" vertex="1">
          <mxGeometry x="470" y="3114" width="20" height="10" as="geometry" />
        </mxCell>
        <mxCell id="YLEVBwhidmgwvVXyxrOQ-365" value="1" style="text;html=1;align=center;verticalAlign=middle;resizable=0;points=[];autosize=1;strokeColor=none;fillColor=none;fontSize=21;" parent="1" vertex="1">
          <mxGeometry x="690" y="3084" width="40" height="40" as="geometry" />
        </mxCell>
        <mxCell id="YLEVBwhidmgwvVXyxrOQ-366" value="ꝏ" style="text;whiteSpace=wrap;fontSize=21;" parent="1" vertex="1">
          <mxGeometry x="250" y="3119" width="20" height="10" as="geometry" />
        </mxCell>
        <mxCell id="YLEVBwhidmgwvVXyxrOQ-367" value="ꝏ" style="text;whiteSpace=wrap;fontSize=21;" parent="1" vertex="1">
          <mxGeometry x="785" y="3124" width="20" height="10" as="geometry" />
        </mxCell>
        <mxCell id="YLEVBwhidmgwvVXyxrOQ-369" value="1" style="text;html=1;align=center;verticalAlign=middle;resizable=0;points=[];autosize=1;strokeColor=none;fillColor=none;fontSize=21;" parent="1" vertex="1">
          <mxGeometry x="995" y="2862" width="40" height="40" as="geometry" />
        </mxCell>
        <mxCell id="YLEVBwhidmgwvVXyxrOQ-374" style="edgeStyle=orthogonalEdgeStyle;rounded=0;orthogonalLoop=1;jettySize=auto;html=1;exitX=1;exitY=0.5;exitDx=0;exitDy=0;entryX=0;entryY=0.5;entryDx=0;entryDy=0;endArrow=none;endFill=0;" parent="1" source="YLEVBwhidmgwvVXyxrOQ-308" target="YLEVBwhidmgwvVXyxrOQ-140" edge="1">
          <mxGeometry relative="1" as="geometry">
            <Array as="points">
              <mxPoint x="1020" y="2901" />
              <mxPoint x="1020" y="3052" />
              <mxPoint x="770" y="3052" />
              <mxPoint x="770" y="3159" />
            </Array>
          </mxGeometry>
        </mxCell>
      </root>
    </mxGraphModel>
  </diagram>
</mxfile>
